<mxfile host="app.diagrams.net" modified="2023-04-13T08:57:38.193Z" agent="Mozilla/5.0 (X11; Linux x86_64) AppleWebKit/537.36 (KHTML, like Gecko) Chrome/111.0.0.0 Safari/537.36" etag="xzb6VbbYZTlZxTi5O2OI" version="21.1.7" type="github">
  <diagram name="Page-1" id="vaIY_bHOYb37YPtk4KzR">
    <mxGraphModel dx="1066" dy="627" grid="1" gridSize="10" guides="1" tooltips="1" connect="1" arrows="1" fold="1" page="1" pageScale="1" pageWidth="827" pageHeight="1169" math="0" shadow="0">
      <root>
        <mxCell id="0" />
        <mxCell id="1" parent="0" />
        <mxCell id="P4LAjkTT6LfvHTBxDiuA-1" value="" style="whiteSpace=wrap;html=1;aspect=fixed;" vertex="1" parent="1">
          <mxGeometry x="80" y="60" width="80" height="80" as="geometry" />
        </mxCell>
        <mxCell id="P4LAjkTT6LfvHTBxDiuA-2" value="" style="ellipse;whiteSpace=wrap;html=1;aspect=fixed;" vertex="1" parent="1">
          <mxGeometry x="380" y="70" width="80" height="80" as="geometry" />
        </mxCell>
        <mxCell id="P4LAjkTT6LfvHTBxDiuA-3" value="" style="whiteSpace=wrap;html=1;aspect=fixed;" vertex="1" parent="1">
          <mxGeometry x="630" y="60" width="80" height="80" as="geometry" />
        </mxCell>
        <mxCell id="P4LAjkTT6LfvHTBxDiuA-4" value="" style="ellipse;shape=cloud;whiteSpace=wrap;html=1;" vertex="1" parent="1">
          <mxGeometry x="200" y="250" width="120" height="80" as="geometry" />
        </mxCell>
        <mxCell id="P4LAjkTT6LfvHTBxDiuA-5" value="" style="shape=tape;whiteSpace=wrap;html=1;" vertex="1" parent="1">
          <mxGeometry x="450" y="230" width="120" height="100" as="geometry" />
        </mxCell>
        <mxCell id="P4LAjkTT6LfvHTBxDiuA-6" value="" style="curved=1;endArrow=classic;html=1;rounded=0;" edge="1" parent="1" source="P4LAjkTT6LfvHTBxDiuA-1">
          <mxGeometry width="50" height="50" relative="1" as="geometry">
            <mxPoint x="390" y="350" as="sourcePoint" />
            <mxPoint x="440" y="300" as="targetPoint" />
            <Array as="points">
              <mxPoint x="440" y="350" />
              <mxPoint x="390" y="300" />
            </Array>
          </mxGeometry>
        </mxCell>
        <mxCell id="P4LAjkTT6LfvHTBxDiuA-7" value="" style="endArrow=none;html=1;rounded=0;exitX=0.875;exitY=0.5;exitDx=0;exitDy=0;exitPerimeter=0;" edge="1" parent="1" source="P4LAjkTT6LfvHTBxDiuA-4" target="P4LAjkTT6LfvHTBxDiuA-3">
          <mxGeometry width="50" height="50" relative="1" as="geometry">
            <mxPoint x="360" y="240" as="sourcePoint" />
            <mxPoint x="410" y="190" as="targetPoint" />
          </mxGeometry>
        </mxCell>
      </root>
    </mxGraphModel>
  </diagram>
</mxfile>
